<svg width="56" height="32" viewBox="0 0 56 32" fill="none" xmlns="http://www.w3.org/2000/svg">
<mask id="mask0_2573_15245" style="mask-type:alpha" maskUnits="userSpaceOnUse" x="16" y="4" width="24" height="24">
<rect x="16" y="4" width="24" height="24" fill="#D9D9D9"/>
</mask>
<g mask="url(#mask0_2573_15245)">
<path d="M21 26C20.45 26 19.9792 25.8042 19.5875 25.4125C19.1958 25.0208 19 24.55 19 24V10C19 9.45 19.1958 8.97917 19.5875 8.5875C19.9792 8.19583 20.45 8 21 8H22V6H24V8H32V6H34V8H35C35.55 8 36.0208 8.19583 36.4125 8.5875C36.8042 8.97917 37 9.45 37 10V24C37 24.55 36.8042 25.0208 36.4125 25.4125C36.0208 25.8042 35.55 26 35 26H21ZM21 24H35V14H21V24ZM21 12H35V10H21V12Z" fill="#1D1B20"/>
</g>
</svg>
