<svg width="143" height="44" viewBox="0 0 143 44" fill="none" xmlns="http://www.w3.org/2000/svg">
<rect width="143" height="44" fill="white" fill-opacity="0.01"/>
<path fill-rule="evenodd" clip-rule="evenodd" d="M4.72945 27.0628C5.72936 28.0549 5.72935 29.6634 4.72942 30.6555L4.67821 30.7063C3.67828 31.6984 2.05709 31.6984 1.05718 30.7063C0.0572661 29.7142 0.0572814 28.1057 1.05721 27.1136L1.10842 27.0628C2.10835 26.0707 3.72954 26.0707 4.72945 27.0628Z" fill="#A4BCFD"/>
<path fill-rule="evenodd" clip-rule="evenodd" d="M16.7669 27.8281C17.765 28.8219 17.7621 30.4304 16.7603 31.4207L9.66786 38.4323C8.66613 39.4226 7.04495 39.4197 6.04684 38.4258C5.04872 37.4319 5.05166 35.8234 6.05338 34.8331L13.1459 27.8216C14.1476 26.8313 15.7688 26.8342 16.7669 27.8281Z" fill="#6172F3"/>
<path fill-rule="evenodd" clip-rule="evenodd" d="M26.3931 39.898C27.1775 38.7306 28.7672 38.4151 29.9438 39.1934L30.0974 39.295C31.274 40.0733 31.5919 41.6506 30.8075 42.8179C30.0231 43.9853 28.4334 44.3008 27.2568 43.5225L27.1032 43.4209C25.9266 42.6427 25.6087 41.0654 26.3931 39.898Z" fill="#A4BCFD"/>
<path fill-rule="evenodd" clip-rule="evenodd" d="M43.2899 26.9104C44.2898 27.9024 44.2898 29.5109 43.2899 30.503L39.8077 33.958C38.8078 34.9501 37.1866 34.9501 36.1867 33.958C35.1867 32.9659 35.1867 31.3574 36.1867 30.3653L39.6689 26.9104C40.6688 25.9183 42.29 25.9183 43.2899 26.9104Z" fill="#6172F3"/>
<path fill-rule="evenodd" clip-rule="evenodd" d="M43.3411 14.1321C44.3411 15.1242 44.3411 16.7327 43.3411 17.7248L17.6085 43.2559C16.6086 44.248 14.9874 44.248 13.9875 43.2559C12.9876 42.2638 12.9876 40.6553 13.9875 39.6632L39.7201 14.1321C40.72 13.14 42.3412 13.14 43.3411 14.1321Z" fill="#3538CD"/>
<path fill-rule="evenodd" clip-rule="evenodd" d="M38.4763 6.28218C39.4762 7.27427 39.4762 8.88277 38.4763 9.87487L23.6768 24.5585C22.6769 25.5506 21.0557 25.5506 20.0558 24.5585C19.0559 23.5664 19.0559 21.9579 20.0558 20.9658L34.8552 6.28218C35.8552 5.29008 37.4763 5.29008 38.4763 6.28218Z" fill="#3538CD"/>
<path fill-rule="evenodd" clip-rule="evenodd" d="M30.6656 1.30175C31.6662 2.29318 31.6673 3.90168 30.6681 4.89444L11.6439 23.7951C10.6446 24.7879 9.02345 24.789 8.02286 23.7976C7.02226 22.8061 7.02117 21.1976 8.02042 20.2049L27.0446 1.30417C28.0439 0.311409 29.6651 0.310327 30.6656 1.30175Z" fill="#3538CD"/>
<path fill-rule="evenodd" clip-rule="evenodd" d="M11.825 7.35225C12.8232 8.34605 12.8204 9.95455 11.8188 10.9449L4.36785 18.3121C3.36621 19.3025 1.74502 19.2998 0.746827 18.306C-0.251371 17.3122 -0.248581 15.7037 0.753059 14.7133L8.20399 7.34606C9.20563 6.35568 10.8268 6.35845 11.825 7.35225Z" fill="#6172F3"/>
<path fill-rule="evenodd" clip-rule="evenodd" d="M16.3869 0C17.801 0 18.9474 1.13738 18.9474 2.54042V2.79446C18.9474 4.19749 17.801 5.33487 16.3869 5.33487C14.9728 5.33487 13.8265 4.19749 13.8265 2.79446V2.54042C13.8265 1.13738 14.9728 0 16.3869 0Z" fill="#A4BCFD"/>
<path d="M60.6252 34.0367V10.9442H69.7548C71.5024 10.9442 72.9938 11.2562 74.2292 11.8801C75.4721 12.4965 76.4174 13.3723 77.0652 14.5073C77.7206 15.6349 78.0482 16.9617 78.0482 18.4876C78.0482 20.0211 77.7168 21.3404 77.0539 22.4454C76.3911 23.5429 75.4306 24.3848 74.1727 24.9711C72.9223 25.5575 71.4082 25.8506 69.6305 25.8506H63.5178V21.9267H68.8396C69.7736 21.9267 70.5495 21.7989 71.1672 21.5433C71.7848 21.2878 72.2443 20.9044 72.5456 20.3932C72.8545 19.8821 73.0089 19.2469 73.0089 18.4876C73.0089 17.7209 72.8545 17.0744 72.5456 16.5482C72.2443 16.022 71.7811 15.6236 71.1559 15.353C70.5382 15.0749 69.7586 14.9358 68.817 14.9358H65.5177V34.0367H60.6252ZM73.1219 23.5278L78.8731 34.0367H73.4722L67.8453 23.5278H73.1219Z" fill="#101828"/>
<path d="M88.3408 34.375C86.5857 34.375 85.0679 34.0029 83.7873 33.2587C82.5143 32.507 81.5313 31.4621 80.8383 30.1241C80.1453 28.7785 79.7988 27.2187 79.7988 25.4447C79.7988 23.6556 80.1453 22.0921 80.8383 20.754C81.5313 19.4085 82.5143 18.3636 83.7873 17.6194C85.0679 16.8677 86.5857 16.4919 88.3408 16.4919C90.0959 16.4919 91.61 16.8677 92.883 17.6194C94.1635 18.3636 95.1503 19.4085 95.8433 20.754C96.5363 22.0921 96.8828 23.6556 96.8828 25.4447C96.8828 27.2187 96.5363 28.7785 95.8433 30.1241C95.1503 31.4621 94.1635 32.507 92.883 33.2587C91.61 34.0029 90.0959 34.375 88.3408 34.375ZM88.3634 30.654C89.1619 30.654 89.8285 30.4285 90.3633 29.9775C90.8981 29.519 91.3011 28.895 91.5723 28.1058C91.851 27.3165 91.9904 26.4182 91.9904 25.4109C91.9904 24.4036 91.851 23.5053 91.5723 22.716C91.3011 21.9267 90.8981 21.3028 90.3633 20.8442C89.8285 20.3857 89.1619 20.1564 88.3634 20.1564C87.5574 20.1564 86.8795 20.3857 86.3296 20.8442C85.7872 21.3028 85.3767 21.9267 85.098 22.716C84.8268 23.5053 84.6912 24.4036 84.6912 25.4109C84.6912 26.4182 84.8268 27.3165 85.098 28.1058C85.3767 28.895 85.7872 29.519 86.3296 29.9775C86.8795 30.4285 87.5574 30.654 88.3634 30.654Z" fill="#101828"/>
<path d="M99.4667 34.0367V10.9442H104.28V19.6265H104.427C104.638 19.1604 104.943 18.6868 105.342 18.2058C105.749 17.7171 106.276 17.3112 106.924 16.988C107.579 16.6572 108.393 16.4919 109.365 16.4919C110.63 16.4919 111.798 16.8226 112.867 17.4841C113.937 18.1381 114.792 19.1266 115.432 20.4496C116.072 21.7651 116.393 23.4151 116.393 25.3996C116.393 27.3315 116.08 28.9627 115.455 30.2932C114.837 31.6162 113.993 32.6198 112.924 33.3038C111.862 33.9804 110.671 34.3186 109.353 34.3186C108.419 34.3186 107.625 34.1645 106.969 33.8563C106.321 33.5481 105.79 33.161 105.376 32.6949C104.962 32.2214 104.645 31.744 104.427 31.2629H104.212V34.0367H99.4667ZM104.178 25.3771C104.178 26.4069 104.321 27.3052 104.608 28.0719C104.894 28.8387 105.308 29.4363 105.851 29.8648C106.393 30.2857 107.052 30.4962 107.828 30.4962C108.611 30.4962 109.274 30.282 109.817 29.8535C110.359 29.4175 110.769 28.8161 111.048 28.0494C111.334 27.2751 111.477 26.3843 111.477 25.3771C111.477 24.3773 111.338 23.4978 111.059 22.7386C110.781 21.9793 110.37 21.3855 109.828 20.957C109.285 20.5285 108.619 20.3143 107.828 20.3143C107.045 20.3143 106.382 20.521 105.839 20.9345C105.304 21.3479 104.894 21.9342 104.608 22.6935C104.321 23.4527 104.178 24.3472 104.178 25.3771Z" fill="#101828"/>
<path d="M118.968 34.0367V16.7174H123.781V34.0367H118.968ZM121.386 14.4848C120.67 14.4848 120.056 14.248 119.544 13.7744C119.039 13.2933 118.787 12.7183 118.787 12.0493C118.787 11.3878 119.039 10.8202 119.544 10.3466C120.056 9.86555 120.67 9.625 121.386 9.625C122.101 9.625 122.712 9.86555 123.216 10.3466C123.729 10.8202 123.985 11.3878 123.985 12.0493C123.985 12.7183 123.729 13.2933 123.216 13.7744C122.712 14.248 122.101 14.4848 121.386 14.4848Z" fill="#101828"/>
<path d="M131.814 24.024V34.0367H127.001V16.7174H131.588V19.7731H131.791C132.176 18.7658 132.82 17.969 133.724 17.3826C134.627 16.7888 135.723 16.4919 137.012 16.4919C138.217 16.4919 139.268 16.755 140.164 17.2812C141.06 17.8073 141.757 18.5591 142.254 19.5363C142.751 20.506 143 21.6636 143 23.0092V34.0367H138.187V23.8661C138.194 22.8062 137.923 21.9793 137.373 21.3855C136.823 20.7841 136.066 20.4834 135.102 20.4834C134.454 20.4834 133.882 20.6225 133.385 20.9006C132.895 21.1788 132.511 21.5847 132.232 22.1184C131.961 22.6446 131.822 23.2798 131.814 24.024Z" fill="#101828"/>
</svg>
