<svg width="56" height="32" viewBox="0 0 56 32" fill="none" xmlns="http://www.w3.org/2000/svg">
<mask id="mask0_2573_15232" style="mask-type:alpha" maskUnits="userSpaceOnUse" x="16" y="4" width="24" height="24">
<rect x="16" y="4" width="24" height="24" fill="#D9D9D9"/>
</mask>
<g mask="url(#mask0_2573_15232)">
<path d="M20 24C19.45 24 18.9792 23.8042 18.5875 23.4125C18.1958 23.0208 18 22.55 18 22V10C18 9.45 18.1958 8.97917 18.5875 8.5875C18.9792 8.19583 19.45 8 20 8H36C36.55 8 37.0208 8.19583 37.4125 8.5875C37.8042 8.97917 38 9.45 38 10V22C38 22.55 37.8042 23.0208 37.4125 23.4125C37.0208 23.8042 36.55 24 36 24H20ZM28 17L20 12V22H36V12L28 17ZM28 15L36 10H20L28 15ZM20 12V10V22V12Z" fill="#1D1B20"/>
</g>
</svg>
