<svg width="56" height="32" viewBox="0 0 56 32" fill="none" xmlns="http://www.w3.org/2000/svg">
<path d="M16 24V21.225C16 20.6583 16.1417 20.1333 16.425 19.65C16.7083 19.1667 17.1 18.8 17.6 18.55C17.8333 18.4333 18.0583 18.325 18.275 18.225C18.5083 18.125 18.75 18.0333 19 17.95V24H16ZM20 17C19.1667 17 18.4583 16.7083 17.875 16.125C17.2917 15.5417 17 14.8333 17 14C17 13.1667 17.2917 12.4583 17.875 11.875C18.4583 11.2917 19.1667 11 20 11C20.8333 11 21.5417 11.2917 22.125 11.875C22.7083 12.4583 23 13.1667 23 14C23 14.8333 22.7083 15.5417 22.125 16.125C21.5417 16.7083 20.8333 17 20 17ZM20 15C20.2833 15 20.5167 14.9083 20.7 14.725C20.9 14.525 21 14.2833 21 14C21 13.7167 20.9 13.4833 20.7 13.3C20.5167 13.1 20.2833 13 20 13C19.7167 13 19.475 13.1 19.275 13.3C19.0917 13.4833 19 13.7167 19 14C19 14.2833 19.0917 14.525 19.275 14.725C19.475 14.9083 19.7167 15 20 15ZM20 24V21.2C20 20.6333 20.1417 20.1167 20.425 19.65C20.725 19.1667 21.1167 18.8 21.6 18.55C22.6333 18.0333 23.6833 17.65 24.75 17.4C25.8167 17.1333 26.9 17 28 17C29.1 17 30.1833 17.1333 31.25 17.4C32.3167 17.65 33.3667 18.0333 34.4 18.55C34.8833 18.8 35.2667 19.1667 35.55 19.65C35.85 20.1167 36 20.6333 36 21.2V24H20ZM22 22H34V21.2C34 21.0167 33.95 20.85 33.85 20.7C33.7667 20.55 33.65 20.4333 33.5 20.35C32.6 19.9 31.6917 19.5667 30.775 19.35C29.8583 19.1167 28.9333 19 28 19C27.0667 19 26.1417 19.1167 25.225 19.35C24.3083 19.5667 23.4 19.9 22.5 20.35C22.35 20.4333 22.225 20.55 22.125 20.7C22.0417 20.85 22 21.0167 22 21.2V22ZM28 16C26.9 16 25.9583 15.6083 25.175 14.825C24.3917 14.0417 24 13.1 24 12C24 10.9 24.3917 9.95833 25.175 9.175C25.9583 8.39167 26.9 8 28 8C29.1 8 30.0417 8.39167 30.825 9.175C31.6083 9.95833 32 10.9 32 12C32 13.1 31.6083 14.0417 30.825 14.825C30.0417 15.6083 29.1 16 28 16ZM28 14C28.55 14 29.0167 13.8083 29.4 13.425C29.8 13.025 30 12.55 30 12C30 11.45 29.8 10.9833 29.4 10.6C29.0167 10.2 28.55 10 28 10C27.45 10 26.975 10.2 26.575 10.6C26.1917 10.9833 26 11.45 26 12C26 12.55 26.1917 13.025 26.575 13.425C26.975 13.8083 27.45 14 28 14ZM36 17C35.1667 17 34.4583 16.7083 33.875 16.125C33.2917 15.5417 33 14.8333 33 14C33 13.1667 33.2917 12.4583 33.875 11.875C34.4583 11.2917 35.1667 11 36 11C36.8333 11 37.5417 11.2917 38.125 11.875C38.7083 12.4583 39 13.1667 39 14C39 14.8333 38.7083 15.5417 38.125 16.125C37.5417 16.7083 36.8333 17 36 17ZM36 15C36.2833 15 36.5167 14.9083 36.7 14.725C36.9 14.525 37 14.2833 37 14C37 13.7167 36.9 13.4833 36.7 13.3C36.5167 13.1 36.2833 13 36 13C35.7167 13 35.475 13.1 35.275 13.3C35.0917 13.4833 35 13.7167 35 14C35 14.2833 35.0917 14.525 35.275 14.725C35.475 14.9083 35.7167 15 36 15ZM37 24V17.95C37.25 18.0333 37.4833 18.125 37.7 18.225C37.9333 18.325 38.1667 18.4333 38.4 18.55C38.9 18.8 39.2917 19.1667 39.575 19.65C39.8583 20.1333 40 20.6583 40 21.225V24H37Z" fill="#1D1B20"/>
</svg>
