<svg width="56" height="32" viewBox="0 0 56 32" fill="none" xmlns="http://www.w3.org/2000/svg">
<path d="M25.25 26L24.85 22.8C24.6333 22.7167 24.4291 22.6167 24.2375 22.5C24.0458 22.3833 23.8583 22.2583 23.675 22.125L20.7 23.375L17.95 18.625L20.525 16.675C20.5083 16.5583 20.5 16.4458 20.5 16.3375V15.6625C20.5 15.5542 20.5083 15.4417 20.525 15.325L17.95 13.375L20.7 8.625L23.675 9.875C23.8583 9.74167 24.05 9.61667 24.25 9.5C24.45 9.38333 24.65 9.28333 24.85 9.2L25.25 6H30.75L31.15 9.2C31.3666 9.28333 31.5708 9.38333 31.7625 9.5C31.9541 9.61667 32.1416 9.74167 32.325 9.875L35.3 8.625L38.05 13.375L35.475 15.325C35.4916 15.4417 35.5 15.5542 35.5 15.6625V16.3375C35.5 16.4458 35.4833 16.5583 35.45 16.675L38.025 18.625L35.275 23.375L32.325 22.125C32.1416 22.2583 31.95 22.3833 31.75 22.5C31.55 22.6167 31.35 22.7167 31.15 22.8L30.75 26H25.25ZM27 24H28.975L29.325 21.35C29.8416 21.2167 30.3208 21.0208 30.7625 20.7625C31.2041 20.5042 31.6083 20.1917 31.975 19.825L34.45 20.85L35.425 19.15L33.275 17.525C33.3583 17.2917 33.4166 17.0458 33.45 16.7875C33.4833 16.5292 33.5 16.2667 33.5 16C33.5 15.7333 33.4833 15.4708 33.45 15.2125C33.4166 14.9542 33.3583 14.7083 33.275 14.475L35.425 12.85L34.45 11.15L31.975 12.2C31.6083 11.8167 31.2041 11.4958 30.7625 11.2375C30.3208 10.9792 29.8416 10.7833 29.325 10.65L29 8H27.025L26.675 10.65C26.1583 10.7833 25.6791 10.9792 25.2375 11.2375C24.7958 11.4958 24.3916 11.8083 24.025 12.175L21.55 11.15L20.575 12.85L22.725 14.45C22.6416 14.7 22.5833 14.95 22.55 15.2C22.5166 15.45 22.5 15.7167 22.5 16C22.5 16.2667 22.5166 16.525 22.55 16.775C22.5833 17.025 22.6416 17.275 22.725 17.525L20.575 19.15L21.55 20.85L24.025 19.8C24.3916 20.1833 24.7958 20.5042 25.2375 20.7625C25.6791 21.0208 26.1583 21.2167 26.675 21.35L27 24ZM28.05 19.5C29.0166 19.5 29.8416 19.1583 30.525 18.475C31.2083 17.7917 31.55 16.9667 31.55 16C31.55 15.0333 31.2083 14.2083 30.525 13.525C29.8416 12.8417 29.0166 12.5 28.05 12.5C27.0666 12.5 26.2375 12.8417 25.5625 13.525C24.8875 14.2083 24.55 15.0333 24.55 16C24.55 16.9667 24.8875 17.7917 25.5625 18.475C26.2375 19.1583 27.0666 19.5 28.05 19.5Z" fill="#1D1B20"/>
</svg>
